<svg xmlns="http://www.w3.org/2000/svg" xmlns:xlink="http://www.w3.org/1999/xlink" width="500" zoomAndPan="magnify" viewBox="0 0 375 374.999991" height="500" preserveAspectRatio="xMidYMid meet" version="1.0"><rect x="-37.5" width="450" fill="#ffffff" y="-37.499999" height="449.999989" fill-opacity="1"/><rect x="-37.5" width="450" fill="#ffffff" y="-37.499999" height="449.999989" fill-opacity="1"/><path fill="#86a3bf" d="M 184.113281 38.589844 C 183.011719 38.589844 181.914062 38.617188 180.816406 38.667969 C 179.71875 38.722656 178.621094 38.804688 177.527344 38.914062 C 176.433594 39.019531 175.34375 39.15625 174.253906 39.316406 C 173.167969 39.476562 172.085938 39.664062 171.007812 39.878906 C 169.929688 40.09375 168.855469 40.335938 167.789062 40.601562 C 166.722656 40.871094 165.664062 41.164062 164.613281 41.484375 C 163.5625 41.804688 162.515625 42.148438 161.480469 42.519531 C 160.445312 42.890625 159.421875 43.285156 158.40625 43.707031 C 157.390625 44.128906 156.386719 44.574219 155.390625 45.042969 C 154.398438 45.511719 153.417969 46.007812 152.445312 46.527344 C 151.476562 47.046875 150.519531 47.585938 149.578125 48.152344 C 148.636719 48.71875 147.707031 49.308594 146.792969 49.917969 C 145.878906 50.53125 144.980469 51.164062 144.097656 51.816406 C 143.214844 52.472656 142.347656 53.148438 141.496094 53.847656 C 140.648438 54.546875 139.816406 55.265625 139 56.003906 C 138.1875 56.742188 137.390625 57.5 136.613281 58.277344 C 135.835938 59.054688 135.078125 59.851562 134.339844 60.667969 C 133.601562 61.484375 132.882812 62.316406 132.1875 63.167969 C 131.488281 64.015625 130.8125 64.882812 130.15625 65.769531 C 129.503906 66.652344 128.871094 67.550781 128.257812 68.464844 C 127.648438 69.378906 127.0625 70.308594 126.496094 71.253906 C 125.929688 72.195312 125.386719 73.152344 124.871094 74.125 C 124.351562 75.09375 123.859375 76.078125 123.386719 77.070312 C 122.917969 78.066406 122.472656 79.070312 122.050781 80.085938 C 121.632812 81.105469 121.234375 82.128906 120.867188 83.164062 C 120.496094 84.203125 120.148438 85.246094 119.832031 86.296875 C 119.511719 87.351562 119.21875 88.410156 118.953125 89.480469 C 118.683594 90.546875 118.445312 91.617188 118.230469 92.699219 C 118.015625 93.777344 117.828125 94.859375 117.664062 95.949219 C 117.503906 97.039062 117.371094 98.128906 117.261719 99.222656 C 117.15625 100.320312 117.074219 101.414062 117.019531 102.515625 C 116.964844 103.613281 116.9375 104.710938 116.9375 105.8125 C 116.953125 108.300781 117.105469 110.78125 117.398438 113.253906 C 92.0625 117.804688 73.054688 138.285156 73.054688 163.007812 C 73.054688 191.09375 97.585938 213.707031 128.0625 213.707031 L 324.332031 213.707031 C 352.398438 213.707031 374.996094 192.6875 374.996094 166.582031 C 374.996094 140.636719 352.679688 119.726562 324.855469 119.46875 C 324.632812 117.726562 324.335938 116 323.960938 114.289062 C 323.585938 112.578125 323.132812 110.882812 322.601562 109.214844 C 322.074219 107.542969 321.46875 105.898438 320.792969 104.28125 C 320.117188 102.664062 319.367188 101.078125 318.546875 99.53125 C 317.726562 97.980469 316.839844 96.472656 315.882812 95.003906 C 314.925781 93.535156 313.90625 92.109375 312.820312 90.734375 C 311.734375 89.359375 310.589844 88.03125 309.386719 86.757812 C 308.179688 85.488281 306.921875 84.269531 305.605469 83.109375 C 304.292969 81.953125 302.929688 80.855469 301.515625 79.816406 C 300.101562 78.78125 298.644531 77.8125 297.140625 76.90625 C 295.640625 76.003906 294.101562 75.167969 292.527344 74.402344 C 290.949219 73.640625 289.339844 72.945312 287.703125 72.328125 C 286.0625 71.707031 284.398438 71.164062 282.710938 70.695312 C 281.023438 70.226562 279.316406 69.832031 277.59375 69.519531 C 275.871094 69.203125 274.136719 68.964844 272.390625 68.808594 C 270.648438 68.648438 268.898438 68.570312 267.144531 68.570312 C 263.011719 68.578125 258.921875 69.019531 254.878906 69.898438 C 250.839844 70.777344 246.933594 72.074219 243.167969 73.785156 C 241.734375 71.136719 240.128906 68.59375 238.351562 66.160156 C 236.578125 63.726562 234.648438 61.425781 232.5625 59.25 C 230.476562 57.078125 228.253906 55.054688 225.898438 53.179688 C 223.539062 51.304688 221.066406 49.597656 218.480469 48.054688 C 215.894531 46.511719 213.214844 45.152344 210.445312 43.96875 C 207.675781 42.789062 204.839844 41.796875 201.933594 41 C 199.03125 40.199219 196.089844 39.597656 193.105469 39.195312 C 190.121094 38.789062 187.125 38.589844 184.113281 38.589844 Z M 184.113281 38.589844 " fill-opacity="1" fill-rule="nonzero"/><path fill="#c6e0f7" d="M 111.085938 63.886719 C 109.984375 63.886719 108.886719 63.914062 107.789062 63.96875 C 106.691406 64.019531 105.59375 64.101562 104.5 64.210938 C 103.40625 64.316406 102.316406 64.453125 101.226562 64.613281 C 100.140625 64.773438 99.058594 64.964844 97.980469 65.179688 C 96.902344 65.394531 95.828125 65.632812 94.761719 65.902344 C 93.695312 66.167969 92.636719 66.460938 91.585938 66.78125 C 90.535156 67.101562 89.488281 67.445312 88.453125 67.816406 C 87.417969 68.1875 86.394531 68.582031 85.378906 69.003906 C 84.363281 69.425781 83.359375 69.871094 82.363281 70.339844 C 81.371094 70.8125 80.390625 71.304688 79.417969 71.824219 C 78.449219 72.34375 77.492188 72.886719 76.550781 73.449219 C 75.609375 74.015625 74.679688 74.605469 73.765625 75.214844 C 72.851562 75.828125 71.953125 76.460938 71.070312 77.117188 C 70.1875 77.769531 69.320312 78.449219 68.46875 79.144531 C 67.621094 79.84375 66.789062 80.5625 65.972656 81.300781 C 65.160156 82.039062 64.363281 82.796875 63.585938 83.578125 C 62.808594 84.355469 62.050781 85.152344 61.3125 85.964844 C 60.574219 86.78125 59.855469 87.613281 59.160156 88.464844 C 58.460938 89.316406 57.785156 90.183594 57.128906 91.066406 C 56.476562 91.949219 55.84375 92.847656 55.230469 93.761719 C 54.621094 94.679688 54.035156 95.605469 53.46875 96.550781 C 52.902344 97.496094 52.363281 98.453125 51.84375 99.421875 C 51.324219 100.390625 50.832031 101.375 50.359375 102.367188 C 49.890625 103.363281 49.445312 104.367188 49.023438 105.386719 C 48.605469 106.402344 48.207031 107.425781 47.839844 108.464844 C 47.46875 109.5 47.121094 110.542969 46.804688 111.597656 C 46.484375 112.648438 46.191406 113.710938 45.925781 114.777344 C 45.65625 115.84375 45.417969 116.917969 45.203125 117.996094 C 44.988281 119.074219 44.800781 120.160156 44.636719 121.246094 C 44.476562 122.335938 44.34375 123.425781 44.234375 124.519531 C 44.128906 125.617188 44.046875 126.714844 43.992188 127.8125 C 43.9375 128.910156 43.910156 130.011719 43.910156 131.109375 C 43.925781 133.597656 44.078125 136.078125 44.371094 138.550781 C 19.035156 143.105469 0.0273438 163.582031 0.0273438 188.304688 C 0.0273438 216.394531 24.558594 239.007812 55.035156 239.007812 L 251.304688 239.007812 C 279.371094 239.007812 301.96875 217.988281 301.96875 191.878906 C 301.96875 165.933594 279.652344 145.023438 251.828125 144.765625 C 251.605469 143.023438 251.308594 141.300781 250.933594 139.585938 C 250.558594 137.875 250.105469 136.183594 249.574219 134.511719 C 249.046875 132.839844 248.445312 131.195312 247.765625 129.578125 C 247.089844 127.960938 246.339844 126.378906 245.519531 124.828125 C 244.699219 123.277344 243.8125 121.769531 242.855469 120.300781 C 241.898438 118.832031 240.878906 117.410156 239.792969 116.03125 C 238.707031 114.65625 237.5625 113.332031 236.359375 112.058594 C 235.152344 110.785156 233.894531 109.566406 232.578125 108.410156 C 231.265625 107.25 229.902344 106.152344 228.488281 105.117188 C 227.074219 104.078125 225.617188 103.109375 224.113281 102.207031 C 222.613281 101.300781 221.074219 100.46875 219.5 99.703125 C 217.921875 98.9375 216.3125 98.246094 214.675781 97.625 C 213.035156 97.003906 211.371094 96.460938 209.683594 95.992188 C 207.996094 95.523438 206.289062 95.128906 204.566406 94.816406 C 202.84375 94.5 201.109375 94.265625 199.363281 94.105469 C 197.621094 93.949219 195.871094 93.867188 194.117188 93.867188 C 189.984375 93.875 185.894531 94.316406 181.851562 95.195312 C 177.8125 96.074219 173.90625 97.371094 170.140625 99.082031 C 168.707031 96.433594 167.101562 93.890625 165.324219 91.457031 C 163.550781 89.027344 161.621094 86.722656 159.535156 84.546875 C 157.449219 82.375 155.226562 80.351562 152.871094 78.476562 C 150.511719 76.601562 148.039062 74.894531 145.453125 73.351562 C 142.867188 71.8125 140.1875 70.449219 137.417969 69.269531 C 134.648438 68.085938 131.8125 67.097656 128.90625 66.296875 C 126.003906 65.496094 123.0625 64.894531 120.078125 64.492188 C 117.09375 64.089844 114.097656 63.886719 111.085938 63.886719 Z M 111.085938 63.886719 " fill-opacity="1" fill-rule="nonzero"/><path fill="#3981bf" d="M 78.664062 207.109375 C 73.558594 212.867188 59.75 224.410156 55.582031 240.117188 C 55.347656 240.992188 55.203125 241.878906 55.144531 242.78125 C 55.082031 243.683594 55.113281 244.582031 55.230469 245.480469 C 55.347656 246.375 55.554688 247.253906 55.84375 248.109375 C 56.132812 248.964844 56.503906 249.785156 56.957031 250.566406 C 57.40625 251.347656 57.933594 252.082031 58.527344 252.761719 C 59.121094 253.441406 59.777344 254.054688 60.496094 254.605469 C 61.210938 255.15625 61.976562 255.628906 62.785156 256.03125 C 63.597656 256.429688 64.4375 256.746094 65.308594 256.980469 C 66.183594 257.214844 67.070312 257.363281 67.972656 257.421875 C 68.871094 257.480469 69.769531 257.449219 70.667969 257.332031 C 71.5625 257.214844 72.4375 257.011719 73.292969 256.71875 C 74.148438 256.429688 74.96875 256.058594 75.75 255.605469 C 76.53125 255.152344 77.261719 254.628906 77.941406 254.035156 C 78.621094 253.4375 79.234375 252.78125 79.785156 252.0625 C 80.335938 251.347656 80.808594 250.582031 81.210938 249.773438 C 81.609375 248.960938 81.925781 248.117188 82.160156 247.246094 C 82.191406 247.132812 82.21875 247.015625 82.246094 246.902344 C 86.519531 230.402344 80.195312 214.597656 78.664062 207.109375 Z M 78.664062 207.109375 " fill-opacity="1" fill-rule="nonzero"/><path fill="#3981bf" d="M 141.554688 207.109375 C 136.453125 212.867188 122.640625 224.410156 118.476562 240.117188 C 118.242188 240.992188 118.09375 241.878906 118.035156 242.78125 C 117.976562 243.683594 118.003906 244.582031 118.125 245.480469 C 118.242188 246.375 118.445312 247.253906 118.734375 248.109375 C 119.027344 248.964844 119.398438 249.785156 119.847656 250.566406 C 120.300781 251.347656 120.824219 252.082031 121.421875 252.761719 C 122.015625 253.441406 122.671875 254.054688 123.386719 254.605469 C 124.105469 255.15625 124.867188 255.628906 125.679688 256.03125 C 126.488281 256.429688 127.332031 256.746094 128.203125 256.980469 C 129.074219 257.214844 129.960938 257.363281 130.863281 257.421875 C 131.765625 257.480469 132.664062 257.449219 133.558594 257.332031 C 134.453125 257.214844 135.332031 257.011719 136.1875 256.71875 C 137.042969 256.429688 137.859375 256.058594 138.640625 255.605469 C 139.425781 255.152344 140.15625 254.628906 140.835938 254.035156 C 141.515625 253.4375 142.128906 252.78125 142.679688 252.0625 C 143.226562 251.347656 143.703125 250.582031 144.101562 249.773438 C 144.503906 248.960938 144.820312 248.117188 145.050781 247.246094 C 145.082031 247.132812 145.113281 247.015625 145.140625 246.902344 C 149.414062 230.402344 143.085938 214.597656 141.554688 207.109375 Z M 141.554688 207.109375 " fill-opacity="1" fill-rule="nonzero"/><path fill="#3981bf" d="M 204.550781 208.792969 C 199.449219 214.550781 185.636719 226.089844 181.46875 241.800781 C 181.238281 242.671875 181.089844 243.5625 181.03125 244.464844 C 180.972656 245.363281 181 246.265625 181.121094 247.160156 C 181.238281 248.058594 181.441406 248.933594 181.730469 249.789062 C 182.023438 250.644531 182.394531 251.464844 182.84375 252.246094 C 183.296875 253.03125 183.820312 253.761719 184.414062 254.441406 C 185.011719 255.121094 185.667969 255.734375 186.382812 256.285156 C 187.101562 256.835938 187.863281 257.3125 188.675781 257.710938 C 189.484375 258.113281 190.324219 258.429688 191.199219 258.664062 C 192.070312 258.894531 192.957031 259.042969 193.859375 259.101562 C 194.761719 259.160156 195.660156 259.132812 196.554688 259.015625 C 197.449219 258.894531 198.324219 258.691406 199.179688 258.402344 C 200.035156 258.109375 200.855469 257.738281 201.636719 257.285156 C 202.421875 256.835938 203.152344 256.3125 203.832031 255.714844 C 204.507812 255.117188 205.125 254.460938 205.675781 253.746094 C 206.222656 253.027344 206.699219 252.265625 207.097656 251.453125 C 207.496094 250.640625 207.8125 249.800781 208.046875 248.925781 C 208.078125 248.8125 208.109375 248.699219 208.136719 248.582031 C 212.40625 232.082031 206.082031 216.28125 204.550781 208.792969 Z M 204.550781 208.792969 " fill-opacity="1" fill-rule="nonzero"/><path fill="#3981bf" d="M 110.160156 264.429688 C 105.058594 270.1875 91.246094 281.726562 87.078125 297.4375 C 86.847656 298.308594 86.699219 299.199219 86.640625 300.101562 C 86.582031 301.003906 86.609375 301.902344 86.730469 302.796875 C 86.847656 303.695312 87.050781 304.570312 87.339844 305.425781 C 87.632812 306.28125 88.003906 307.101562 88.453125 307.886719 C 88.90625 308.667969 89.429688 309.398438 90.023438 310.078125 C 90.621094 310.757812 91.277344 311.375 91.992188 311.921875 C 92.710938 312.472656 93.472656 312.949219 94.285156 313.347656 C 95.09375 313.75 95.933594 314.066406 96.808594 314.300781 C 97.679688 314.535156 98.566406 314.679688 99.46875 314.738281 C 100.371094 314.796875 101.269531 314.769531 102.164062 314.652344 C 103.058594 314.53125 103.9375 314.328125 104.792969 314.039062 C 105.644531 313.746094 106.464844 313.375 107.246094 312.925781 C 108.03125 312.472656 108.761719 311.949219 109.441406 311.351562 C 110.117188 310.757812 110.734375 310.097656 111.285156 309.382812 C 111.832031 308.664062 112.308594 307.902344 112.707031 307.089844 C 113.105469 306.28125 113.425781 305.4375 113.65625 304.5625 C 113.6875 304.449219 113.71875 304.335938 113.746094 304.21875 C 118.015625 287.71875 111.691406 271.917969 110.160156 264.429688 Z M 110.160156 264.429688 " fill-opacity="1" fill-rule="nonzero"/><path fill="#3981bf" d="M 173.054688 264.429688 C 167.949219 270.1875 154.140625 281.726562 149.972656 297.4375 C 149.738281 298.308594 149.59375 299.199219 149.535156 300.101562 C 149.472656 301.003906 149.503906 301.902344 149.621094 302.796875 C 149.738281 303.695312 149.945312 304.570312 150.234375 305.425781 C 150.523438 306.28125 150.894531 307.101562 151.347656 307.886719 C 151.796875 308.667969 152.324219 309.398438 152.917969 310.078125 C 153.511719 310.757812 154.167969 311.375 154.886719 311.921875 C 155.601562 312.472656 156.367188 312.949219 157.175781 313.347656 C 157.988281 313.75 158.828125 314.066406 159.699219 314.300781 C 160.574219 314.535156 161.460938 314.679688 162.363281 314.738281 C 163.261719 314.796875 164.160156 314.769531 165.058594 314.652344 C 165.953125 314.53125 166.828125 314.328125 167.683594 314.039062 C 168.539062 313.746094 169.359375 313.375 170.140625 312.925781 C 170.921875 312.472656 171.652344 311.949219 172.332031 311.351562 C 173.011719 310.757812 173.625 310.097656 174.175781 309.382812 C 174.726562 308.664062 175.199219 307.902344 175.601562 307.089844 C 176 306.28125 176.316406 305.4375 176.550781 304.5625 C 176.582031 304.449219 176.609375 304.335938 176.636719 304.21875 C 180.910156 287.71875 174.585938 271.917969 173.054688 264.429688 Z M 173.054688 264.429688 " fill-opacity="1" fill-rule="nonzero"/></svg>